<svg
 xmlns="http://www.w3.org/2000/svg"
 xmlns:xlink="http://www.w3.org/1999/xlink"
 width="205.5px" height="205.5px">
<path fill-rule="evenodd"  stroke="rgb(66, 128, 254)" stroke-width="3px" stroke-dasharray="0, 9" stroke-linecap="round" stroke-linejoin="miter" fill="none"
 d="M101.906,1.875 C157.135,1.875 201.906,46.647 201.906,101.875 C201.906,157.103 157.135,201.875 101.906,201.875 C46.678,201.875 1.906,157.103 1.906,101.875 C1.906,46.647 46.678,1.875 101.906,1.875 Z"/>
<path fill-rule="evenodd"  fill="rgb(255, 188, 59)"
 d="M20.500,40.438 C22.709,40.438 24.500,42.228 24.500,44.437 C24.500,46.647 22.709,48.437 20.500,48.437 C18.291,48.437 16.500,46.647 16.500,44.437 C16.500,42.228 18.291,40.438 20.500,40.438 Z"/>
<path fill-rule="evenodd"  fill="rgb(19, 123, 249)"
 d="M167.375,171.375 C169.584,171.375 171.375,173.166 171.375,175.375 C171.375,177.584 169.584,179.375 167.375,179.375 C165.166,179.375 163.375,177.584 163.375,175.375 C163.375,173.166 165.166,171.375 167.375,171.375 Z"/>
</svg>
