<svg t="1670145178045" class="icon" viewBox="0 0 1024 1024" version="1.1" xmlns="http://www.w3.org/2000/svg" p-id="1934"
  width="20" height="20">
  <path
    d="M407.850667 687.530667l1.152 1.237333 57.685333 96.170667a8.533333 8.533333 0 0 1 0.938667 6.656l-0.938667 2.133333-57.685333 96.170667a4.266667 4.266667 0 0 1-6.186667 1.28l-1.152-1.28-57.685333-96.170667a8.533333 8.533333 0 0 1-0.938667-6.656l0.938667-2.133333 57.685333-96.170667a4.266667 4.266667 0 0 1 6.186667-1.28z m341.333333 0l1.152 1.237333 57.685333 96.170667a8.533333 8.533333 0 0 1 0.938667 6.656l-0.938667 2.133333-57.685333 96.170667a4.266667 4.266667 0 0 1-6.186667 1.28l-1.152-1.28-57.685333-96.170667a8.533333 8.533333 0 0 1-0.938667-6.656l0.938667-2.133333 57.685333-96.170667a4.266667 4.266667 0 0 1 6.186667-1.28z m-512.170667-0.725334l1.194667 1.194667 35.968 53.930667a8.533333 8.533333 0 0 1 1.066667 7.168l-1.066667 2.304-35.968 53.930666a4.266667 4.266667 0 0 1-5.888 1.194667l-1.194667-1.194667-35.968-53.930666a8.533333 8.533333 0 0 1-1.066666-7.168l1.066666-2.304 35.968-53.930667a4.266667 4.266667 0 0 1 5.888-1.194667z m341.333334 0l1.194666 1.194667 35.968 53.930667a8.533333 8.533333 0 0 1 1.066667 7.168l-1.066667 2.304-35.968 53.930666a4.266667 4.266667 0 0 1-5.888 1.194667l-1.194666-1.194667-35.968-53.930666a8.533333 8.533333 0 0 1-1.066667-7.168l1.066667-2.304 35.968-53.930667a4.266667 4.266667 0 0 1 5.888-1.194667zM426.666667 128a192.085333 192.085333 0 0 1 182.186666 131.285333c6.698667-1.450667 13.568-2.432 20.565334-2.901333L640 256a149.333333 149.333333 0 0 1 148.053333 129.962667c4.906667-0.853333 9.856-1.450667 14.933334-1.706667L810.666667 384a128 128 0 0 1 7.509333 255.786667L810.666667 640H256a170.666667 170.666667 0 0 1-20.266667-340.138667 192 192 0 0 1 181.674667-171.648L426.666667 128z m0 42.666667a149.333333 149.333333 0 0 0-147.456 125.568l-1.024 8.021333-3.541334 33.962667-33.877333 4.010666a128 128 0 0 0 7.68 254.890667L256 597.333333h553.429333l6.272-0.128A85.333333 85.333333 0 0 0 810.666667 426.666667l-7.68 0.341333-7.509334 0.981333-43.946666 7.765334-5.76-44.288a106.666667 106.666667 0 0 0-120.746667-91.733334l-7.253333 1.28-37.333334 7.978667-12.032-36.266667A149.418667 149.418667 0 0 0 426.666667 170.666667z"
    p-id="1935" fill="#ffffff"></path>
</svg>
