<svg t="1670145222060" class="icon" viewBox="0 0 1024 1024" version="1.1" xmlns="http://www.w3.org/2000/svg" p-id="2148"
  width="20" height="20">
  <path
    d="M586.026667 54.186667a29.866667 29.866667 0 0 0-31.018667 12.16L214.314667 558.421333a38.4 38.4 0 0 0 9.728 53.418667l4.010666 2.432a38.4 38.4 0 0 0 17.834667 4.394667h239.488l-70.101333 315.52a29.866667 29.866667 0 0 0 53.76 23.466666l340.650666-492.074666a38.4 38.4 0 0 0-9.728-53.418667l-4.010666-2.432a38.4 38.4 0 0 0-17.834667-4.394667h-239.530667l70.144-315.52a29.866667 29.866667 0 0 0-22.698666-35.626666zM253.994667 576l298.88-431.701333-67.456 303.701333h284.501333l-298.837333 431.658667 67.498666-303.658667h-284.586666z"
    p-id="2149" fill="#ffffff"></path>
</svg>
