<svg t="1670145245306" class="icon" viewBox="0 0 1024 1024" version="1.1" xmlns="http://www.w3.org/2000/svg" p-id="2362"
  width="20" height="20">
  <path
    d="M512 832a21.333333 21.333333 0 0 1 20.992 17.493333l0.341333 3.84v85.333334a21.333333 21.333333 0 0 1-42.325333 3.84L490.666667 938.666667v-85.333334a21.333333 21.333333 0 0 1 21.333333-21.333333z m253.482667-96.213333l2.986666 2.474666 60.330667 60.373334a21.333333 21.333333 0 0 1-27.221333 32.597333l-2.986667-2.432-60.330667-60.373333a21.333333 21.333333 0 0 1 27.221334-32.64z m-479.744 2.474666a21.333333 21.333333 0 0 1 2.474666 27.221334l-2.474666 2.986666-60.373334 60.330667a21.333333 21.333333 0 0 1-32.597333-27.221333l2.432-2.986667 60.373333-60.330667a21.333333 21.333333 0 0 1 30.165334 0zM512 256a256 256 0 1 1 0 512 256 256 0 0 1 0-512z m0 42.666667a213.333333 213.333333 0 1 0 0 426.666666 213.333333 213.333333 0 0 0 0-426.666666z m426.666667 192a21.333333 21.333333 0 0 1 3.84 42.325333L938.666667 533.333333h-85.333334a21.333333 21.333333 0 0 1-3.84-42.325333L853.333333 490.666667h85.333334z m-768 0a21.333333 21.333333 0 0 1 3.84 42.325333L170.666667 533.333333H85.333333a21.333333 21.333333 0 0 1-3.84-42.325333L85.333333 490.666667h85.333334z m51.754666-297.898667l2.986667 2.432L285.696 255.573333a21.333333 21.333333 0 0 1-27.221333 32.64l-2.986667-2.474666-60.330667-60.373334a21.333333 21.333333 0 0 1 27.221334-32.597333z m606.378667 2.432a21.333333 21.333333 0 0 1 2.432 27.221333l-2.432 2.986667-60.373333 60.330667a21.333333 21.333333 0 0 1-32.64-27.221334l2.474666-2.986666 60.373334-60.330667a21.333333 21.333333 0 0 1 30.165333 0zM512 64a21.333333 21.333333 0 0 1 20.992 17.493333L533.333333 85.333333v85.333334a21.333333 21.333333 0 0 1-42.325333 3.84L490.666667 170.666667V85.333333a21.333333 21.333333 0 0 1 21.333333-21.333333z"
    p-id="2363" fill="#ffffff"></path>
</svg>
