<svg t="1670145134864" class="icon" viewBox="0 0 1024 1024" version="1.1" xmlns="http://www.w3.org/2000/svg" p-id="1684"
  width="20" height="20">
  <path
    d="M682.666667 682.666667a106.666667 106.666667 0 1 1-106.666667 106.666666 21.333333 21.333333 0 1 1 42.666667 0 64 64 0 1 0 70.144-63.701333L682.666667 725.333333H128a21.333333 21.333333 0 0 1-3.84-42.325333L128 682.666667h554.666667z m-394.666667-106.666667a32 32 0 1 1 0 64 32 32 0 0 1 0-64z m213.333333 0a32 32 0 1 1 0 64 32 32 0 0 1 0-64z m288-298.666667a128 128 0 0 1 7.509334 255.786667l-7.509334 0.213333H128a21.333333 21.333333 0 0 1-3.84-42.325333L128 490.666667h661.333333a85.333333 85.333333 0 1 0-85.333333-85.333334 21.333333 21.333333 0 1 1-42.666667 0 128 128 0 0 1 128-128zM288 384a32 32 0 1 1 0 64 32 32 0 0 1 0-64z m213.333333 0a32 32 0 1 1 0 64 32 32 0 0 1 0-64zM512 128a106.666667 106.666667 0 0 1 6.997333 213.12L512 341.333333H128a21.333333 21.333333 0 0 1-3.84-42.325333L128 298.666667h384a64 64 0 1 0-64-64 21.333333 21.333333 0 1 1-42.666667 0A106.666667 106.666667 0 0 1 512 128z"
    p-id="1685" fill="#ffffff"></path>
</svg>
