<svg t="1670145281934" class="icon" viewBox="0 0 1024 1024" version="1.1" xmlns="http://www.w3.org/2000/svg" p-id="2612"
  width="20" height="20">
  <path
    d="M448 725.333333a21.333333 21.333333 0 1 1 0 42.666667h-298.666667a21.333333 21.333333 0 1 1 0-42.666667h298.666667z m426.666667 0a21.333333 21.333333 0 1 1 0 42.666667h-298.666667a21.333333 21.333333 0 1 1 0-42.666667h298.666667z m-426.666667-213.333333a21.333333 21.333333 0 1 1 0 42.666667h-298.666667a21.333333 21.333333 0 1 1 0-42.666667h298.666667z m426.666667 0a21.333333 21.333333 0 1 1 0 42.666667h-298.666667a21.333333 21.333333 0 1 1 0-42.666667h298.666667z m-426.666667-213.333333a21.333333 21.333333 0 1 1 0 42.666666h-298.666667a21.333333 21.333333 0 0 1 0-42.666666h298.666667z m426.666667 0a21.333333 21.333333 0 1 1 0 42.666666h-298.666667a21.333333 21.333333 0 1 1 0-42.666666h298.666667z"
    p-id="2613" fill="#ffffff"></path>
</svg>
