<svg t="1670145091807" class="icon" viewBox="0 0 1024 1024" version="1.1" xmlns="http://www.w3.org/2000/svg" p-id="1434"
  width="20" height="20">
  <path
    d="M403.328 825.813333a17.066667 17.066667 0 0 1 7.68 20.138667l-1.450667 3.157333-17.237333 29.824h34.474667a17.066667 17.066667 0 0 1 3.413333 33.792l-3.413333 0.341334h-34.474667l17.237333 29.824a17.066667 17.066667 0 0 1-27.52 19.882666l-2.005333-2.816-17.28-29.866666-17.194667 29.866666a17.066667 17.066667 0 0 1-30.976-13.909333l1.450667-3.157333 17.194667-29.866667-34.432 0.042667a17.066667 17.066667 0 0 1-3.413334-33.792l3.413334-0.341334h34.432l-17.194667-29.824a17.066667 17.066667 0 0 1 27.52-19.882666l2.005333 2.816 17.237334 29.824 17.237333-29.824a17.066667 17.066667 0 0 1 23.296-6.229334z m256 0a17.066667 17.066667 0 0 1 7.68 20.138667l-1.450667 3.157333-17.237333 29.824h34.474667a17.066667 17.066667 0 0 1 3.413333 33.792l-3.413333 0.341334h-34.474667l17.237333 29.824a17.066667 17.066667 0 0 1-27.52 19.882666l-2.005333-2.816-17.28-29.866666-17.194667 29.866666a17.066667 17.066667 0 0 1-30.976-13.909333l1.450667-3.157333 17.194667-29.866667-34.432 0.042667a17.066667 17.066667 0 0 1-3.413334-33.792l3.413334-0.341334h34.432l-17.194667-29.824a17.066667 17.066667 0 0 1 27.52-19.882666l2.005333 2.816 17.237334 29.824 17.237333-29.824a17.066667 17.066667 0 0 1 23.296-6.229334z m-384-170.666666a17.066667 17.066667 0 0 1 7.68 20.138666l-1.450667 3.157334-17.237333 29.824h34.474667a17.066667 17.066667 0 0 1 3.413333 33.792l-3.413333 0.341333h-34.474667l17.237333 29.824a17.066667 17.066667 0 0 1-27.52 19.882667l-2.005333-2.816-17.28-29.866667-17.194667 29.866667a17.066667 17.066667 0 0 1-30.976-13.909334l1.450667-3.157333 17.194667-29.866667-34.432 0.042667a17.066667 17.066667 0 0 1-3.413334-33.792l3.413334-0.341333h34.432l-17.194667-29.824a17.066667 17.066667 0 0 1 27.52-19.882667l2.005333 2.816 17.237334 29.824 17.237333-29.824a17.066667 17.066667 0 0 1 23.296-6.229333z m256 0a17.066667 17.066667 0 0 1 7.68 20.138666l-1.450667 3.157334-17.237333 29.824h34.474667a17.066667 17.066667 0 0 1 3.413333 33.792l-3.413333 0.341333h-34.474667l17.237333 29.824a17.066667 17.066667 0 0 1-27.52 19.882667l-2.005333-2.816-17.28-29.866667-17.194667 29.866667a17.066667 17.066667 0 0 1-30.976-13.909334l1.450667-3.157333 17.194667-29.866667-34.432 0.042667a17.066667 17.066667 0 0 1-3.413334-33.792l3.413334-0.341333h34.432l-17.194667-29.824a17.066667 17.066667 0 0 1 27.52-19.882667l2.005333 2.816 17.237334 29.824 17.237333-29.824a17.066667 17.066667 0 0 1 23.296-6.229333z m256 0a17.066667 17.066667 0 0 1 7.68 20.138666l-1.450667 3.157334-17.237333 29.824h34.474667a17.066667 17.066667 0 0 1 3.413333 33.792l-3.413333 0.341333h-34.474667l17.237333 29.824a17.066667 17.066667 0 0 1-27.52 19.882667l-2.005333-2.816-17.28-29.866667-17.194667 29.866667a17.066667 17.066667 0 0 1-30.976-13.909334l1.450667-3.157333 17.194667-29.866667-34.432 0.042667a17.066667 17.066667 0 0 1-3.413334-33.792l3.413334-0.341333h34.432l-17.194667-29.824a17.066667 17.066667 0 0 1 27.52-19.882667l2.005333 2.816 17.237334 29.824 17.237333-29.824a17.066667 17.066667 0 0 1 23.296-6.229333zM256.128 597.333333a170.666667 170.666667 0 0 1-20.266667-340.138666 191.957333 191.957333 0 0 1 373.12-40.576 149.333333 149.333333 0 0 1 179.2 126.72l6.272-0.981334c2.858667-0.384 5.76-0.64 8.704-0.810666L810.666667 341.333333a128 128 0 0 1 15.701333 255.061334l-8.106667 0.768-7.466666 0.170666h-554.666667z m170.666667-469.333333a149.333333 149.333333 0 0 0-147.456 125.568l-1.024 8.021333-3.541334 33.962667-33.877333 4.010667a128 128 0 0 0 7.68 254.890666l7.552 0.213334 555.733333-0.042667 5.162667-0.170667A85.333333 85.333333 0 0 0 810.709333 384l-7.594666 0.341333-7.509334 0.981334-43.946666 7.765333-5.76-44.288a106.666667 106.666667 0 0 0-120.746667-91.733333l-7.253333 1.28-37.333334 7.978666-12.032-36.266666A149.418667 149.418667 0 0 0 426.794667 128z"
    fill="#ffffff" p-id="1435"></path>
</svg>
