<svg t="1670145435041" class="icon" viewBox="0 0 1024 1024" version="1.1" xmlns="http://www.w3.org/2000/svg" p-id="2934"
  width="20" height="20">
  <path
    d="M571.733333 213.333333c67.84 0 125.44 45.824 145.749334 109.44 8.021333-1.834667 16.341333-2.773333 24.917333-2.773333 60.757333 0 110.933333 47.232 118.485333 108.373333 5.802667-1.152 11.861333-1.706667 18.048-1.706666 56.533333 0 102.4 47.786667 102.4 106.666666 0 55.552-40.746667 101.12-92.8 106.24l-0.298666-0.938666a128 128 0 0 1-112.725334 171.818666L768 810.666667H213.333333a170.666667 170.666667 0 0 1-20.266666-340.138667 191.957333 191.957333 0 0 1 242.816-164.778667l-3.029334-0.810666C457.429333 250.794667 510.378667 213.333333 571.733333 213.333333zM384 341.333333a149.333333 149.333333 0 0 0-147.456 125.568l-1.024 8.021334-3.541333 33.962666-33.877334 4.010667a128 128 0 0 0 7.68 254.890667L213.333333 768h553.429334l6.272-0.128A85.333333 85.333333 0 0 0 768 597.333333l-7.68 0.341334-7.509333 0.981333-43.946667 7.765333-5.76-44.288a106.666667 106.666667 0 0 0-120.746667-91.733333l-7.253333 1.28-37.333333 7.978667-12.032-36.266667A149.418667 149.418667 0 0 0 384 341.333333z m187.733333-85.333333c-42.794667 0-80.64 25.898667-99.029333 64.341333a192.256 192.256 0 0 1 93.482667 109.610667 149.333333 149.333333 0 0 1 179.2 126.72 127.658667 127.658667 0 0 1 117.930666 40.618667l0.085334 0.042666h14.08l5.290666-0.128c30.976-2.133333 55.893333-29.696 55.893334-63.872 0-35.712-27.136-64-59.733334-64l-5.12 0.213334-4.992 0.725333-44.672 8.490667-5.632-45.184C813.482667 392.96 780.672 362.666667 742.4 362.666667c-3.584 0-7.04 0.256-10.453333 0.768l-4.992 0.938666-38.186667 8.661334-11.946667-37.290667C661.717333 288.256 619.477333 256 571.733333 256z"
    p-id="2935" fill="#ffffff"></path>
</svg>
