<svg t="1670144834926" class="icon" viewBox="0 0 1024 1024" version="1.1" xmlns="http://www.w3.org/2000/svg" p-id="1149"
  width="16" height="16">
  <path
    d="M458.666667 685.525333a21.333333 21.333333 0 0 1 7.808 29.141334l-85.333334 147.797333a21.290667 21.290667 0 0 1-14.72 10.325333l-3.626666 0.341334a21.333333 21.333333 0 0 1-18.602667-32l85.333333-147.797334a21.290667 21.290667 0 0 1 14.72-10.325333l3.626667-0.341333c3.669333 0 7.381333 0.896 10.794667 2.858666z m341.333333 0a21.333333 21.333333 0 0 1 7.808 29.141334l-85.333333 147.797333a21.290667 21.290667 0 0 1-14.72 10.325333l-3.626667 0.341334a21.333333 21.333333 0 0 1-18.602667-32l85.333334-147.797334a21.290667 21.290667 0 0 1 14.72-10.325333l3.626666-0.341333c3.669333 0 7.381333 0.896 10.794667 2.858666z m-512 0a21.333333 21.333333 0 0 1 7.808 29.141334l-42.666667 73.898666a21.290667 21.290667 0 0 1-14.72 10.325334l-3.626666 0.341333a21.333333 21.333333 0 0 1-18.602667-32l42.666667-73.898667a21.290667 21.290667 0 0 1 14.72-10.325333L277.205333 682.666667c3.669333 0 7.381333 0.896 10.794667 2.858666z m341.333333 0a21.333333 21.333333 0 0 1 7.808 29.141334l-42.666666 73.898666a21.290667 21.290667 0 0 1-14.72 10.325334l-3.626667 0.341333a21.333333 21.333333 0 0 1-18.602667-32l42.666667-73.898667a21.290667 21.290667 0 0 1 14.72-10.325333l3.626667-0.341333c3.669333 0 7.381333 0.896 10.794666 2.858666zM426.666667 128a192.085333 192.085333 0 0 1 182.186666 131.285333c6.698667-1.450667 13.568-2.432 20.565334-2.901333L640 256a149.333333 149.333333 0 0 1 148.053333 129.962667c4.906667-0.853333 9.856-1.450667 14.933334-1.706667L810.666667 384a128 128 0 0 1 7.509333 255.786667L810.666667 640H256a170.666667 170.666667 0 0 1-20.266667-340.138667 192 192 0 0 1 181.674667-171.648L426.666667 128z m0 42.666667a149.333333 149.333333 0 0 0-147.456 125.568l-1.024 8.021333-3.541334 33.962667-33.877333 4.010666a128 128 0 0 0 7.68 254.890667L256 597.333333h553.429333l6.272-0.128A85.333333 85.333333 0 0 0 810.666667 426.666667l-7.68 0.341333-7.509334 0.981333-43.946666 7.765334-5.76-44.288a106.666667 106.666667 0 0 0-120.746667-91.733334l-7.253333 1.28-37.333334 7.978667-12.032-36.266667A149.418667 149.418667 0 0 0 426.666667 170.666667z"
    p-id="1150" fill="#ffffff"></path>
</svg>
