<svg t="1670145465116" class="icon" viewBox="0 0 1024 1024" version="1.1" xmlns="http://www.w3.org/2000/svg" p-id="3148"
  width="20" height="20">
  <path
    d="M264.917333 430.037333l4.096-6.144 3.114667-4.394666 6.485333-8.32 2.005334-2.389334 5.12-5.802666 7.936-8.106667c3.84-3.669333 7.850667-7.210667 11.989333-10.581333l9.216-7.04 8.106667-5.546667 9.984-5.973333 7.765333-4.096 8.874667-4.181334a192.426667 192.426667 0 0 1 11.434666-4.565333l10.496-3.498667 9.088-2.474666 13.013334-2.730667 8.32-1.28 11.093333-1.152 15.36-0.426667 7.978667 0.213334 8.874666 0.682666 4.181334 0.426667 8.490666 1.194667 9.514667 1.792 8.917333 2.133333 9.258667 2.773333 10.410667 3.712 10.709333 4.48 9.088 4.48 10.965333 6.186667 7.338667 4.693333 7.125333 5.077334-2.304-1.706667a170.666667 170.666667 0 1 1 262.314667 214.698667l-6.826667 6.186666c2.858667-0.384 5.76-0.64 8.704-0.810666L810.666667 597.333333a128 128 0 0 1 15.701333 255.061334l-8.106667 0.768-7.466666 0.170666h-554.666667a170.666667 170.666667 0 0 1-20.266667-340.138666l0.981334-7.893334 2.304-12.714666 2.602666-10.624 3.072-9.941334 2.474667-6.912a188.16 188.16 0 0 1 10.666667-23.296l1.706666-3.072c1.664-2.986667 3.413333-5.845333 5.248-8.704zM426.794667 384a149.333333 149.333333 0 0 0-147.456 125.568l-1.024 8.021333-3.541334 33.962667-33.877333 4.010667a128 128 0 0 0 7.68 254.890666l7.552 0.213334 556.16-0.085334 4.266667-0.170666 7.04-0.725334A85.333333 85.333333 0 0 0 810.666667 640l-7.594667 0.341333-7.509333 0.981334-43.946667 7.765333-5.76-44.288a106.666667 106.666667 0 0 0-95.445333-92.288l-8.405334-0.469333-8.448 0.170666c-2.816 0.170667-5.632 0.426667-8.448 0.853334l-7.253333 1.28-37.333333 7.978666-12.032-36.266666A149.418667 149.418667 0 0 0 426.794667 384z m148.778666 15.36l-4.437333 7.338667 3.84 4.565333c2.858667 3.413333 5.546667 6.997333 8.192 10.624l5.205333 7.68 3.584 5.845333 3.84 6.698667 4.309334 8.533333 5.12 11.648c1.28 3.413333 2.56 6.826667 3.754666 10.325334 3.797333-0.810667 7.594667-1.450667 11.434667-1.962667l6.4-0.725333 6.058667-0.426667 9.301333-0.170667 4.949333 0.170667c6.186667 0.298667 12.288 0.938667 18.304 1.962667l10.112 2.133333 3.498667 0.896 8.96 2.730667 5.205333 1.877333c5.376 2.048 10.666667 4.394667 15.786667 7.082667l8.405333 4.693333 5.12 3.242667 3.797334 2.602666 7.338666 5.546667c13.269333 10.666667 24.832 23.637333 33.92 38.613333l3.925334 6.826667 4.608 9.173333a128 128 0 1 0-195.584-164.608l-4.949334 7.082667z m384.554667 48.64a21.333333 21.333333 0 1 1 0 42.666667h-42.666667a21.333333 21.333333 0 1 1 0-42.666667h42.666667z m-66.133333-189.866667a21.333333 21.333333 0 0 1 0 30.165334l-30.165334 30.165333a21.333333 21.333333 0 0 1-30.165333-30.165333l30.165333-30.165334a21.333333 21.333333 0 0 1 30.165334 0z m-392.234667 0l30.165333 30.165334a21.333333 21.333333 0 0 1-30.165333 30.165333l-30.165333-30.165333a21.333333 21.333333 0 0 1 30.165333-30.165334zM682.794667 170.666667a21.333333 21.333333 0 0 1 21.333333 21.333333v42.666667a21.333333 21.333333 0 1 1-42.666667 0v-42.666667a21.333333 21.333333 0 0 1 21.333334-21.333333z"
    fill="#ffffff" p-id="3149"></path>
</svg>
